<svg width="760" height="37" viewBox="0 0 760 37" fill="none" xmlns="http://www.w3.org/2000/svg">
<line y1="17.5" x2="183" y2="17.5" stroke="black"/>
<line x1="577" y1="17.5" x2="760" y2="17.5" stroke="black"/>
<path d="M252.388 29V8H260.578C262.418 8 263.988 8.29 265.288 8.87C266.588 9.45 267.588 10.29 268.288 11.39C268.988 12.49 269.338 13.8 269.338 15.32C269.338 16.84 268.988 18.15 268.288 19.25C267.588 20.33 266.588 21.16 265.288 21.74C263.988 22.32 262.418 22.61 260.578 22.61H254.038L255.388 21.23V29H252.388ZM266.428 29L261.088 21.38H264.298L269.698 29H266.428ZM255.388 21.53L254.038 20.06H260.488C262.408 20.06 263.858 19.65 264.838 18.83C265.838 17.99 266.338 16.82 266.338 15.32C266.338 13.82 265.838 12.66 264.838 11.84C263.858 11.02 262.408 10.61 260.488 10.61H254.038L255.388 9.11V21.53ZM276.465 17.06H287.265V19.61H276.465V17.06ZM276.735 26.39H288.975V29H273.735V8H288.555V10.61H276.735V26.39ZM296.082 17.93H306.912V20.51H296.082V17.93ZM296.382 29H293.382V8H308.202V10.61H296.382V29ZM311.975 29V8H314.975V29H311.975ZM324.982 29V10.61H317.782V8H335.152V10.61H327.952V29H324.982ZM348.56 5.93C354.2 5.93 358.4 8.93 358.4 13.43C358.4 17.96 354.2 20.93 348.56 20.93C342.92 20.93 338.69 17.96 338.69 13.43C338.69 8.93 342.92 5.93 348.56 5.93ZM348.56 7.97C344.27 7.97 341.09 10.16 341.09 13.43C341.09 16.67 344.27 18.89 348.56 18.89C352.85 18.89 356.03 16.67 356.03 13.43C356.03 10.16 352.85 7.97 348.56 7.97ZM336.32 25.67H360.89V27.77H336.32V25.67ZM363.467 25.94H388.037V28.01H363.467V25.94ZM374.447 20.12H376.937V26.81H374.447V20.12ZM366.437 6.23H385.007V14.45H368.987V19.88H366.527V12.44H382.547V8.24H366.437V6.23ZM366.527 18.83H385.637V20.87H366.527V18.83ZM405.362 6.56H407.402V11.42C407.402 17.66 404.042 23.45 399.602 25.7L398.072 23.66C402.092 21.74 405.362 16.55 405.362 11.42V6.56ZM405.782 6.56H407.822V11.42C407.822 16.37 411.062 21.35 415.082 23.21L413.582 25.19C409.172 23.03 405.782 17.45 405.782 11.42V6.56ZM417.902 4.19H420.392V31.37H417.902V4.19ZM432.029 7.01H434.069V9.2C434.069 14.18 431.069 18.32 426.539 19.94L425.219 17.99C429.329 16.55 432.029 13.07 432.029 9.2V7.01ZM432.479 7.01H434.519V9.17C434.519 12.77 437.129 16.1 441.119 17.45L439.829 19.4C435.359 17.84 432.479 13.85 432.479 9.17V7.01ZM425.999 6.11H440.489V8.15H425.999V6.11ZM443.909 4.22H446.399V20.54H443.909V4.22ZM445.709 11.36H450.419V13.43H445.709V11.36ZM428.789 21.98H446.399V31.34H443.909V24.05H428.789V21.98ZM470.877 4.22H473.367V31.34H470.877V4.22ZM472.767 15.35H477.807V17.45H472.767V15.35ZM452.367 8.54H468.357V10.58H452.367V8.54ZM460.467 12.83C464.307 12.83 467.067 15.41 467.067 19.07C467.067 22.73 464.307 25.31 460.467 25.31C456.657 25.31 453.867 22.73 453.867 19.07C453.867 15.41 456.657 12.83 460.467 12.83ZM460.467 14.9C458.007 14.9 456.237 16.61 456.237 19.07C456.237 21.5 458.007 23.24 460.467 23.24C462.927 23.24 464.697 21.5 464.697 19.07C464.697 16.61 462.927 14.9 460.467 14.9ZM459.177 4.55H461.667V9.47H459.177V4.55ZM499.405 4.22H501.895V31.34H499.405V4.22ZM491.455 7.13H493.915C493.915 14.99 490.375 21.86 481.315 26.3L479.995 24.29C487.825 20.51 491.455 14.75 491.455 7.55V7.13ZM481.225 7.13H492.535V9.17H481.225V7.13Z" fill="black"/>
</svg>
